<svg id="Camada_1" data-name="Camada 1" xmlns="http://www.w3.org/2000/svg" viewBox="0 0 155.2 21.52"><defs><style>.cls-1{fill:#2fac66;}</style></defs><title>procaci</title><path class="cls-1" d="M0,.13H3v21.3H0Zm1.54,10.2H8.37a3.18,3.18,0,0,0,1.7-.46,3,3,0,0,0,1.14-1.29,4.45,4.45,0,0,0,.4-1.92,4.53,4.53,0,0,0-.4-1.93,3.08,3.08,0,0,0-1.14-1.3A3.18,3.18,0,0,0,8.37,3H1.56V.13H8.27a6.73,6.73,0,0,1,3.35.81,5.6,5.6,0,0,1,2.25,2.3,7.08,7.08,0,0,1,.8,3.42,7.08,7.08,0,0,1-.8,3.42,5.61,5.61,0,0,1-2.25,2.28,6.73,6.73,0,0,1-3.35.81H1.56Z" transform="translate(-0.02 -0.13)"/><path class="cls-1" d="M17.67,6.22h3V21.43h-3ZM25,9.09a3.71,3.71,0,0,0-1.39-.24,3,3,0,0,0-2.21.78,2.94,2.94,0,0,0-.78,2.17l-.31-2.93a5.64,5.64,0,0,1,1.82-2.11A4.31,4.31,0,0,1,24.63,6a5.58,5.58,0,0,1,1.88.3A4.27,4.27,0,0,1,28,7.19L26,9.83A2.54,2.54,0,0,0,25,9.09Z" transform="translate(-0.02 -0.13)"/><path class="cls-1" d="M32.63,20.87a5.17,5.17,0,0,1-2.15-2.26A8,8,0,0,1,29.74,15V12.55A7.87,7.87,0,0,1,30.48,9a5.17,5.17,0,0,1,2.15-2.24A7,7,0,0,1,36,6a7,7,0,0,1,3.39.77A5.15,5.15,0,0,1,41.54,9a7.74,7.74,0,0,1,.74,3.54v2.52a7.73,7.73,0,0,1-.74,3.55,5.17,5.17,0,0,1-2.14,2.25,6.9,6.9,0,0,1-3.39.78A6.87,6.87,0,0,1,32.63,20.87Zm5.81-3a4.09,4.09,0,0,0,.85-2.76V12.55a4,4,0,0,0-.85-2.74,3.08,3.08,0,0,0-2.43-1,3.08,3.08,0,0,0-2.42,1,4,4,0,0,0-.86,2.74v2.52a4.09,4.09,0,0,0,.86,2.76,3.49,3.49,0,0,0,4.85,0Z" transform="translate(-0.02 -0.13)"/><path class="cls-1" d="M49.12,20.87a5.2,5.2,0,0,1-2.25-2.25A7.6,7.6,0,0,1,46.09,15v-2.5A7.39,7.39,0,0,1,46.87,9a5.18,5.18,0,0,1,2.25-2.24A7.6,7.6,0,0,1,52.67,6a8.46,8.46,0,0,1,2.23.29,6.55,6.55,0,0,1,1.88.83,5.19,5.19,0,0,1,1.4,1.32L56,10.37a4.38,4.38,0,0,0-1.51-1.13,4.29,4.29,0,0,0-1.8-.39,3.62,3.62,0,0,0-2.68,1,3.76,3.76,0,0,0-1,2.73V15A3.88,3.88,0,0,0,50,17.83a3.58,3.58,0,0,0,2.69,1,4.13,4.13,0,0,0,1.82-.43A4.39,4.39,0,0,0,56,17.18l2.16,2.08a5.48,5.48,0,0,1-1.41,1.3,6.94,6.94,0,0,1-1.88.81,8.44,8.44,0,0,1-2.22.28A7.48,7.48,0,0,1,49.12,20.87Z" transform="translate(-0.02 -0.13)"/><path class="cls-1" d="M62.13,20.48A4.32,4.32,0,0,1,60.74,17,4.28,4.28,0,0,1,62,13.56a5.7,5.7,0,0,1,3.86-1.13h4.32l.2,2.41H65.88a2.54,2.54,0,0,0-1.75.52A2,2,0,0,0,63.55,17a2,2,0,0,0,.77,1.71,4,4,0,0,0,2.34.56,6.79,6.79,0,0,0,2.55-.37,1.21,1.21,0,0,0,.85-1.14l.3,2.14a3.6,3.6,0,0,1-1,1,4.3,4.3,0,0,1-1.34.59,6.94,6.94,0,0,1-1.72.2A6.42,6.42,0,0,1,62.13,20.48Zm7.93-8.69a3.2,3.2,0,0,0-.8-2.32A3,3,0,0,0,67,8.64a5.71,5.71,0,0,0-1.78.28,5,5,0,0,0-1.54.78L61.49,8.2a5.73,5.73,0,0,1,2.27-1.62A8.37,8.37,0,0,1,66.91,6a7.27,7.27,0,0,1,3.23.67,4.57,4.57,0,0,1,2,1.93,6.23,6.23,0,0,1,.71,3.06v9.77H70.06Z" transform="translate(-0.02 -0.13)"/><path class="cls-1" d="M80,20.87a5.23,5.23,0,0,1-2.24-2.25A7.6,7.6,0,0,1,77,15v-2.5A7.39,7.39,0,0,1,77.78,9,5.21,5.21,0,0,1,80,6.77,7.64,7.64,0,0,1,83.58,6a8.46,8.46,0,0,1,2.23.29,6.55,6.55,0,0,1,1.88.83,5,5,0,0,1,1.39,1.32l-2.15,1.93a4.38,4.38,0,0,0-1.51-1.13,4.32,4.32,0,0,0-1.8-.39,3.6,3.6,0,0,0-2.68,1,3.72,3.72,0,0,0-1,2.73V15a3.88,3.88,0,0,0,.94,2.79,3.58,3.58,0,0,0,2.69,1,4.16,4.16,0,0,0,1.82-.43,4.39,4.39,0,0,0,1.49-1.2l2.15,2.08a5.44,5.44,0,0,1-1.4,1.3,7.08,7.08,0,0,1-1.88.81,8.44,8.44,0,0,1-2.22.28A7.52,7.52,0,0,1,80,20.87Z" transform="translate(-0.02 -0.13)"/><path class="cls-1" d="M92.38.13h3v3h-3Zm0,6.09h3V21.43h-3Z" transform="translate(-0.02 -0.13)"/><path class="cls-1" d="M108.26.13h3v21.3h-3Zm2,18.46h4.82a5.09,5.09,0,0,0,3.65-1.23,4.48,4.48,0,0,0,1.3-3.45V7.64a4.51,4.51,0,0,0-1.3-3.45A5.13,5.13,0,0,0,115.1,3h-4.82V.13H115a9.91,9.91,0,0,1,4.38.89,6.25,6.25,0,0,1,2.77,2.61,8.43,8.43,0,0,1,1,4.13v6a8.43,8.43,0,0,1-1,4.13,6.23,6.23,0,0,1-2.78,2.61,9.91,9.91,0,0,1-4.38.89h-4.72Z" transform="translate(-0.02 -0.13)"/><path class="cls-1" d="M130.28,20.86A5.27,5.27,0,0,1,128,18.54a8,8,0,0,1-.79-3.7V13.12A8.84,8.84,0,0,1,128,9.27a5.4,5.4,0,0,1,2.19-2.43A6.74,6.74,0,0,1,133.62,6a5.48,5.48,0,0,1,3.25,1,5.84,5.84,0,0,1,2,2.75,11.63,11.63,0,0,1,.72,4.32v1H129.38V12.62h7.41a5,5,0,0,0-1-2.89,2.68,2.68,0,0,0-2.21-1A3.23,3.23,0,0,0,131,9.81a4.77,4.77,0,0,0-.93,3.15V14.9a4,4,0,0,0,1,2.9,3.82,3.82,0,0,0,2.83,1,4.83,4.83,0,0,0,1.8-.37,5.1,5.1,0,0,0,1.6-1l2,2a8.46,8.46,0,0,1-2.53,1.68,7.33,7.33,0,0,1-2.83.59A7.66,7.66,0,0,1,130.28,20.86Z" transform="translate(-0.02 -0.13)"/><path class="cls-1" d="M152.1,6.22h3.12l-5.71,15.21h-2.26L141.54,6.22h3.12l3.72,10.86Z" transform="translate(-0.02 -0.13)"/></svg>