<svg id="Camada_1" data-name="Camada 1" xmlns="http://www.w3.org/2000/svg" viewBox="0 0 108.94 21.74"><defs><style>.cls-1{fill:#1e2918;}</style></defs><title>procaci</title><path class="cls-1" d="M0,.13H3v21.3H0Zm1.47,0H13.42V3H1.49Zm0,9.49H11.81v2.84H1.49Z" transform="translate(-0.02 0.09)"/><path class="cls-1" d="M17.09.13h3v21.3h-3Zm1.53,10.2h6.82a3.2,3.2,0,0,0,1.7-.46,3,3,0,0,0,1.13-1.29,4.31,4.31,0,0,0,.4-1.92,4.38,4.38,0,0,0-.4-1.93,3.13,3.13,0,0,0-1.13-1.3A3.2,3.2,0,0,0,25.44,3H18.62V.13h6.71a6.79,6.79,0,0,1,3.36.81,5.66,5.66,0,0,1,2.25,2.3,7.08,7.08,0,0,1,.8,3.42,7.08,7.08,0,0,1-.8,3.42,5.68,5.68,0,0,1-2.25,2.28,6.79,6.79,0,0,1-3.36.81H18.62Z" transform="translate(-0.02 0.09)"/><path class="cls-1" d="M39,21.36a11.13,11.13,0,0,1-2.57-.88A10.82,10.82,0,0,1,34.15,19L36,16.73a8.5,8.5,0,0,0,2.68,1.58,9.39,9.39,0,0,0,3.18.53A6.41,6.41,0,0,0,45.46,18a2.76,2.76,0,0,0,1.28-2.43h0a2.62,2.62,0,0,0-.58-1.77,3.53,3.53,0,0,0-1.5-1,17.31,17.31,0,0,0-2.36-.58l-.1,0h-.09l-.22,0a23,23,0,0,1-3.48-.83,4.84,4.84,0,0,1-2.29-1.69,5.5,5.5,0,0,1-1-3.48h0a6.21,6.21,0,0,1,.89-3.38A5.59,5.59,0,0,1,38.63.64a10.31,10.31,0,0,1,4.09-.73A10,10,0,0,1,45,.16,11.21,11.21,0,0,1,47.15.9a12.45,12.45,0,0,1,2.12,1.24l-1.7,2.37a9.93,9.93,0,0,0-2.42-1.34,7,7,0,0,0-2.43-.45,5.74,5.74,0,0,0-3.39.87,2.87,2.87,0,0,0-1.21,2.47v0a2.38,2.38,0,0,0,.62,1.73,3.83,3.83,0,0,0,1.56.93,24.88,24.88,0,0,0,2.58.62l.11,0,.11,0,.16,0,.16,0a17.36,17.36,0,0,1,3.23.94,5,5,0,0,1,2.17,1.75,5.55,5.55,0,0,1,.87,3.3v0a5.81,5.81,0,0,1-.92,3.33,5.69,5.69,0,0,1-2.67,2.11,10.94,10.94,0,0,1-4.23.73A14.29,14.29,0,0,1,39,21.36Z" transform="translate(-0.02 0.09)"/><path class="cls-1" d="M62,.13h3v21.3H62Zm2,18.46h4.82a5.09,5.09,0,0,0,3.65-1.23,4.48,4.48,0,0,0,1.3-3.45V7.64a4.51,4.51,0,0,0-1.3-3.45A5.13,5.13,0,0,0,68.84,3H64V.13h4.73A9.91,9.91,0,0,1,73.13,1,6.25,6.25,0,0,1,75.9,3.63a8.32,8.32,0,0,1,.95,4.13v6a8.32,8.32,0,0,1-.95,4.13,6.23,6.23,0,0,1-2.78,2.61,9.91,9.91,0,0,1-4.38.89H64Z" transform="translate(-0.02 0.09)"/><path class="cls-1" d="M84,20.86a5.27,5.27,0,0,1-2.28-2.32,8,8,0,0,1-.79-3.7V13.12a8.84,8.84,0,0,1,.76-3.85A5.4,5.4,0,0,1,83.9,6.84,6.74,6.74,0,0,1,87.36,6a5.48,5.48,0,0,1,3.25,1,5.84,5.84,0,0,1,2,2.75A11.63,11.63,0,0,1,93.38,14v1H83.12V12.62h7.41a5.06,5.06,0,0,0-1-2.89,2.71,2.71,0,0,0-2.22-1,3.23,3.23,0,0,0-2.63,1.11A4.77,4.77,0,0,0,83.8,13V14.9a4,4,0,0,0,1,2.9,3.82,3.82,0,0,0,2.83,1,4.79,4.79,0,0,0,1.8-.37,5.1,5.1,0,0,0,1.6-1l2,2a8.46,8.46,0,0,1-2.53,1.68,7.33,7.33,0,0,1-2.83.59A7.66,7.66,0,0,1,84,20.86Z" transform="translate(-0.02 0.09)"/><path class="cls-1" d="M105.84,6.22H109l-5.71,15.21H101L95.28,6.22H98.4l3.72,10.86Z" transform="translate(-0.02 0.09)"/></svg>